<svg xmlns="http://www.w3.org/2000/svg" width="625" height="104" viewBox="0 0 625 104" fill="none"><path d="M171.864 26.1833V35.6871H144.777V46.7044H169.638V55.4902H144.777V68.0911H172.438V77.5949H133.496V26.1833H171.864Z" fill="#3D3D3D"></path><path d="M191.263 26.1833L212.674 60.6737H212.819V26.1833H223.381V77.5949H212.1L190.761 43.1771H190.617V77.5949H180.055V26.1833H191.263Z" fill="#3D3D3D"></path><path d="M244.431 77.5949L227.833 26.1833H239.401L250.824 62.3298H250.969L262.537 26.1833H274.177L257.15 77.5949H244.431Z" fill="#3D3D3D"></path><path d="M289.839 26.1833V77.5949H278.558V26.1833H289.839Z" fill="#3D3D3D"></path><path d="M325.335 26.1833L344.519 77.5949H332.808L328.929 66.1473H309.745L305.721 77.5949H294.368L313.767 26.1833H325.335ZM325.981 57.7217L319.513 38.8567H319.368L312.688 57.7217H325.981Z" fill="#3D3D3D"></path><path d="M373.498 26.1833C376.803 26.1833 379.878 26.7111 382.732 27.7668C385.58 28.8225 388.049 30.4061 390.131 32.52C392.215 34.6339 393.843 37.2731 395.016 40.4402C396.189 43.6098 396.776 47.3298 396.776 51.6001C396.776 55.3451 396.297 58.7999 395.34 61.9695C394.382 65.1391 392.932 67.8734 390.994 70.1775C389.055 72.4815 386.636 74.2952 383.738 75.6136C380.839 76.9345 377.427 77.5924 373.5 77.5924H351.371V26.1833H373.5H373.498ZM372.706 68.0886C374.334 68.0886 375.914 67.8259 377.449 67.2956C378.982 66.7677 380.348 65.8921 381.546 64.6663C382.744 63.4405 383.7 61.8469 384.419 59.8781C385.138 57.9093 385.495 55.5102 385.495 52.6784C385.495 50.0866 385.243 47.7451 384.741 45.6587C384.239 43.5698 383.413 41.7836 382.262 40.2951C381.112 38.8092 379.591 37.6659 377.699 36.8754C375.807 36.0848 373.47 35.6871 370.694 35.6871H362.646V68.0886H372.706Z" fill="#1CAFFF"></path><path d="M415.888 26.1833V77.5949H404.607V26.1833H415.888Z" fill="#1CAFFF"></path><path d="M437.011 26.1833L458.422 60.6737H458.567V26.1833H469.129V77.5949H457.848L436.507 43.1771H436.362V77.5949H425.801V26.1833H437.009H437.011Z" fill="#1CAFFF"></path><path d="M517.412 26.1833V35.6871H490.325V46.7044H515.185V55.4902H490.325V68.0911H517.989V77.5949H479.046V26.1833H517.415H517.412Z" fill="#1CAFFF"></path><path d="M553.264 26.1833C555.563 26.1833 557.635 26.556 559.477 27.299C561.322 28.0445 562.902 29.0627 564.22 30.3585C565.536 31.6544 566.544 33.1554 567.238 34.859C567.932 36.5627 568.279 38.3989 568.279 40.3677C568.279 43.3922 567.643 46.0089 566.375 48.2154C565.104 50.4244 563.035 52.103 560.159 53.2562V53.3988C561.549 53.7841 562.698 54.372 563.609 55.1625C564.517 55.9555 565.261 56.8912 565.835 57.9694C566.41 59.0501 566.829 60.2384 567.094 61.5342C567.356 62.8301 567.536 64.126 567.633 65.4218C567.68 66.2399 567.728 67.198 567.778 68.3012C567.825 69.407 567.907 70.5327 568.03 71.686C568.147 72.8392 568.342 73.93 568.604 74.9632C568.866 75.9963 569.263 76.8719 569.79 77.5924H558.509C557.885 75.9613 557.503 74.0175 557.358 71.761C557.213 69.5045 556.999 67.3456 556.712 65.2817C556.327 62.5949 555.513 60.6261 554.268 59.3778C553.022 58.1295 550.985 57.5066 548.162 57.5066H536.881V77.5949H525.6V26.1833H553.264ZM549.24 49.4412C551.826 49.4412 553.766 48.8658 555.061 47.7126C556.355 46.5593 557.001 44.6881 557.001 42.0963C557.001 39.5046 556.355 37.7885 555.061 36.6602C553.768 35.532 551.829 34.9691 549.24 34.9691H536.881V49.4412H549.24Z" fill="#1CAFFF"></path><path d="M575.776 41.4134C576.927 38.1262 578.577 35.2568 580.734 32.8101C582.888 30.361 585.537 28.4422 588.672 27.0488C591.807 25.6579 595.342 24.9599 599.269 24.9599C603.196 24.9599 606.788 25.6554 609.903 27.0488C613.016 28.4422 615.652 30.361 617.806 32.8101C619.961 35.2593 621.613 38.1262 622.764 41.4134C623.915 44.703 624.489 48.2654 624.489 52.1055C624.489 55.9455 623.915 59.3428 622.764 62.5824C621.613 65.8221 619.963 68.6439 617.806 71.043C615.65 73.4446 613.016 75.3259 609.903 76.6943C606.788 78.0627 603.246 78.7456 599.269 78.7456C595.292 78.7456 591.807 78.0627 588.672 76.6943C585.534 75.3259 582.888 73.4421 580.734 71.043C578.577 68.6439 576.924 65.8221 575.776 62.5824C574.625 59.3428 574.051 55.8504 574.051 52.1055C574.051 48.3605 574.625 44.7005 575.776 41.4134ZM586.086 58.4071C586.588 60.4485 587.389 62.2847 588.492 63.9158C589.593 65.5494 591.031 66.8577 592.803 67.8409C594.573 68.8266 596.73 69.3169 599.269 69.3169C601.808 69.3169 603.962 68.8241 605.737 67.8409C607.509 66.8577 608.945 65.5494 610.048 63.9158C611.149 62.2847 611.953 60.4485 612.454 58.4071C612.956 56.3683 613.211 54.2669 613.211 52.108C613.211 49.949 612.959 47.6675 612.454 45.5561C611.953 43.4447 611.149 41.561 610.048 39.9049C608.945 38.2488 607.509 36.9304 605.737 35.9447C603.964 34.9616 601.808 34.4687 599.269 34.4687C596.73 34.4687 594.573 34.9616 592.803 35.9447C591.031 36.9304 589.593 38.2488 588.492 39.9049C587.389 41.561 586.588 43.4447 586.086 45.5561C585.584 47.67 585.332 49.854 585.332 52.108C585.332 54.362 585.584 56.3683 586.086 58.4071Z" fill="#1CAFFF"></path><path d="M96.1548 0H7.26628C3.25323 0 0 3.26021 0 7.28188V96.3612C0 100.383 3.25323 103.643 7.26628 103.643H96.1548C100.168 103.643 103.421 100.383 103.421 96.3612V7.28188C103.421 3.26021 100.168 0 96.1548 0Z" fill="#1CAFFF"></path><path d="M67.0979 32.2412C63.4824 32.2412 60.2078 32.96 57.2801 34.3975C54.3495 35.835 52.1979 37.844 50.831 40.4304H62.7446V48.705H32.5095C32.7829 44.3953 33.8235 40.3449 35.6312 36.5538C37.439 32.7626 39.864 29.4575 42.9034 26.6413C45.9427 23.8252 49.5171 21.613 53.6264 20.0046C57.7358 18.3962 62.2243 17.592 67.1008 17.592V32.2441L67.0979 32.2412ZM67.0979 85.6799C62.3859 85.6799 57.9768 84.8905 53.8704 83.3086C49.764 81.7268 46.1603 79.5734 43.065 76.8457C39.9698 74.1179 37.4919 70.8982 35.6283 67.1925C33.7647 63.4867 32.7241 59.4775 32.5066 55.1679H62.7416V63.3571H50.9927C51.5394 64.45 52.3478 65.4545 53.4177 66.3735C54.4847 67.2926 55.7311 68.0968 57.1567 68.7861C58.5794 69.4754 60.1402 70.0233 61.8392 70.4239C63.5353 70.8275 65.2901 71.0278 67.0979 71.0278V85.6799Z" fill="white"></path></svg>